<svg
  fill="none"
  height="16"
  viewBox="0 0 16 16"
  width="16"
  xmlns="http://www.w3.org/2000/svg"
>
  <path
    clip-rule="evenodd"
    d="M8 15C6.14348 15 4.36301 14.2625 3.05025 12.9497C1.7375 11.637 1 9.85652 1 8C1 6.14348 1.7375 4.36301 3.05025 3.05025C4.36301 1.7375 6.14348 1 8 1C9.85652 1 11.637 1.7375 12.9497 3.05025C14.2625 4.36301 15 6.14348 15 8C15 9.85652 14.2625 11.637 12.9497 12.9497C11.637 14.2625 9.85652 15 8 15ZM7.25 4.75C7.25 4.55109 7.32902 4.36032 7.46967 4.21967C7.61032 4.07902 7.80109 4 8 4C8.19891 4 8.38968 4.07902 8.53033 4.21967C8.67098 4.36032 8.75 4.55109 8.75 4.75V9.44L9.97 8.22C10.0387 8.14631 10.1215 8.08721 10.2135 8.04622C10.3055 8.00523 10.4048 7.98318 10.5055 7.98141C10.6062 7.97963 10.7062 7.99816 10.7996 8.03588C10.893 8.0736 10.9778 8.12974 11.049 8.20096C11.1203 8.27218 11.1764 8.35701 11.2141 8.4504C11.2518 8.54379 11.2704 8.64382 11.2686 8.74452C11.2668 8.84523 11.2448 8.94454 11.2038 9.03654C11.1628 9.12854 11.1037 9.21134 11.03 9.28L8.53 11.78C8.38937 11.9205 8.19875 11.9993 8 11.9993C7.80125 11.9993 7.61063 11.9205 7.47 11.78L4.97 9.28C4.83752 9.13783 4.7654 8.94978 4.76883 8.75548C4.77225 8.56118 4.85097 8.37579 4.98838 8.23838C5.12579 8.10097 5.31118 8.02225 5.50548 8.01883C5.69978 8.0154 5.88783 8.08752 6.03 8.22L7.25 9.44V4.75Z"
    fill="#416BFF"
    fill-rule="evenodd"
  />
</svg>
