<svg
  fill="none"
  height="16"
  viewBox="0 0 16 16"
  width="16"
  xmlns="http://www.w3.org/2000/svg"
>
  <path
    clip-rule="evenodd"
    d="M5.00037 4C5.17606 3.99998 5.34617 4.06164 5.48104 4.17422C5.61591 4.28679 5.70699 4.44315 5.73837 4.616L5.99037 6.004C6.03588 6.25408 6.15655 6.48434 6.33629 6.66408C6.51603 6.84382 6.74629 6.96449 6.99637 7.01L8.38437 7.262C8.5573 7.29331 8.71374 7.38435 8.82639 7.51923C8.93904 7.65411 9.00075 7.82427 9.00075 8C9.00075 8.17573 8.93904 8.34589 8.82639 8.48077C8.71374 8.61565 8.5573 8.70669 8.38437 8.738L6.99637 8.99C6.74629 9.03551 6.51603 9.15618 6.33629 9.33592C6.15655 9.51566 6.03588 9.74592 5.99037 9.996L5.73837 11.384C5.70706 11.5569 5.61602 11.7134 5.48114 11.826C5.34626 11.9387 5.17611 12.0004 5.00037 12.0004C4.82464 12.0004 4.65448 11.9387 4.5196 11.826C4.38472 11.7134 4.29368 11.5569 4.26237 11.384L4.01037 9.996C3.96486 9.74592 3.84419 9.51566 3.66446 9.33592C3.48472 9.15618 3.25445 9.03551 3.00437 8.99L1.61637 8.738C1.44345 8.70669 1.28701 8.61565 1.17436 8.48077C1.06171 8.34589 1 8.17573 1 8C1 7.82427 1.06171 7.65411 1.17436 7.51923C1.28701 7.38435 1.44345 7.29331 1.61637 7.262L3.00437 7.01C3.25445 6.96449 3.48472 6.84382 3.66446 6.66408C3.84419 6.48434 3.96486 6.25408 4.01037 6.004L4.26237 4.616C4.29376 4.44315 4.38484 4.28679 4.51971 4.17422C4.65458 4.06164 4.82469 3.99998 5.00037 4ZM12.0004 1C12.1633 1.00003 12.3219 1.05314 12.4519 1.1513C12.582 1.24945 12.6766 1.3873 12.7214 1.544L12.9164 2.226C13.0344 2.641 13.3594 2.966 13.7744 3.084L14.4564 3.279C14.613 3.32386 14.7507 3.41848 14.8488 3.54856C14.9468 3.67864 14.9998 3.83711 14.9998 4C14.9998 4.16289 14.9468 4.32136 14.8488 4.45144C14.7507 4.58152 14.613 4.67614 14.4564 4.721L13.7744 4.916C13.5703 4.97439 13.3844 5.0838 13.2343 5.23391C13.0842 5.38402 12.9748 5.56989 12.9164 5.774L12.7214 6.456C12.6765 6.6126 12.5819 6.75033 12.4518 6.84838C12.3217 6.94643 12.1633 6.99946 12.0004 6.99946C11.8375 6.99946 11.679 6.94643 11.5489 6.84838C11.4189 6.75033 11.3242 6.6126 11.2794 6.456L11.0844 5.774C11.026 5.56989 10.9166 5.38402 10.7665 5.23391C10.6164 5.0838 10.4305 4.97439 10.2264 4.916L9.54437 4.721C9.38778 4.67614 9.25005 4.58152 9.152 4.45144C9.05395 4.32136 9.00091 4.16289 9.00091 4C9.00091 3.83711 9.05395 3.67864 9.152 3.54856C9.25005 3.41848 9.38778 3.32386 9.54437 3.279L10.2264 3.084C10.4305 3.02561 10.6164 2.9162 10.7665 2.76609C10.9166 2.61598 11.026 2.43011 11.0844 2.226L11.2794 1.544C11.3241 1.3873 11.4187 1.24945 11.5488 1.1513C11.6789 1.05314 11.8374 1.00003 12.0004 1ZM10.0004 11C10.1677 10.9999 10.3302 11.0558 10.4621 11.1587C10.5941 11.2616 10.6878 11.4057 10.7284 11.568C10.771 11.7381 10.8589 11.8935 10.9829 12.0174C11.1069 12.1414 11.2623 12.2294 11.4324 12.272C11.595 12.3123 11.7395 12.4059 11.8427 12.5378C11.946 12.6697 12.0021 12.8325 12.0021 13C12.0021 13.1675 11.946 13.3303 11.8427 13.4622C11.7395 13.5941 11.595 13.6877 11.4324 13.728C11.2623 13.7706 11.1069 13.8586 10.9829 13.9826C10.8589 14.1065 10.771 14.2619 10.7284 14.432C10.6881 14.5946 10.5945 14.7391 10.4626 14.8423C10.3306 14.9456 10.1679 15.0017 10.0004 15.0017C9.83283 15.0017 9.67012 14.9456 9.53817 14.8423C9.40623 14.7391 9.31266 14.5946 9.27237 14.432C9.2298 14.2619 9.14181 14.1065 9.01782 13.9826C8.89383 13.8586 8.73848 13.7706 8.56837 13.728C8.40575 13.6877 8.26129 13.5941 8.15804 13.4622C8.05479 13.3303 7.9987 13.1675 7.9987 13C7.9987 12.8325 8.05479 12.6697 8.15804 12.5378C8.26129 12.4059 8.40575 12.3123 8.56837 12.272C8.73848 12.2294 8.89383 12.1414 9.01782 12.0174C9.14181 11.8935 9.2298 11.7381 9.27237 11.568C9.31298 11.4057 9.40669 11.2616 9.5386 11.1587C9.67052 11.0558 9.83306 10.9999 10.0004 11Z"
    fill="#416BFF"
    fill-rule="evenodd"
  />
</svg>
