<svg
  width="16"
  height="16"
  viewBox="0 0 16 16"
  fill="none"
  xmlns="http://www.w3.org/2000/svg"
>
  <path
    fill-rule="evenodd"
    clip-rule="evenodd"
    d="M10.2049 1.18551C10.4706 0.93066 10.8927 0.939487 11.1475 1.20522L13.9789 4.15755C14.1615 4.31649 14.3149 4.50803 14.4303 4.72309C14.5651 4.95448 14.6663 5.23213 14.6663 5.55132V11.1341C14.6663 12.1656 13.83 13 12.7997 13C11.7687 13 10.933 12.1643 10.933 11.1333V9.59993C10.933 9.23173 10.6345 8.93327 10.2663 8.93327H9.33301V13.6667C9.33301 13.7127 9.33067 13.7581 9.32614 13.803C9.30067 14.0533 9.20601 14.2833 9.06147 14.4732C8.81794 14.7933 8.43294 15 7.99967 15H2.66634C2.2061 15 1.80033 14.7668 1.56072 14.4121C1.41695 14.1993 1.33301 13.9428 1.33301 13.6667V3.6666C1.33301 2.56203 2.22844 1.6666 3.33301 1.6666H7.33301C8.43761 1.6666 9.33301 2.56203 9.33301 3.6666V7.59993H10.2663C11.3709 7.59993 12.2663 8.4954 12.2663 9.59993V11.1333C12.2663 11.4279 12.5051 11.6667 12.7997 11.6667C13.0948 11.6667 13.333 11.4281 13.333 11.1341V7.5528C13.1245 7.62647 12.9001 7.6666 12.6663 7.6666C11.5617 7.6666 10.6663 6.7712 10.6663 5.6666C10.6663 4.85901 11.145 4.16321 11.8341 3.84745L10.1852 2.12811C9.93034 1.86238 9.93914 1.44037 10.2049 1.18551ZM13.0729 5.13821C12.9603 5.0515 12.8194 4.99993 12.6663 4.99993C12.2981 4.99993 11.9997 5.29841 11.9997 5.6666C11.9997 6.03479 12.2981 6.33327 12.6663 6.33327C13.0345 6.33327 13.333 6.03479 13.333 5.6666C13.333 5.56056 13.3083 5.4603 13.2642 5.37129C13.2199 5.30109 13.1563 5.22373 13.0729 5.13821ZM3.47682 3.14975C3.10863 3.14975 2.81015 3.44823 2.81015 3.81642V6.48309C2.81015 6.85127 3.10863 7.14973 7.14347 7.14973H7.14347C7.51167 7.14973 7.81014 6.85127 7.81014 6.48309V3.81642C7.81014 3.44823 7.51167 3.14975 7.14347 3.14975H3.47682Z"
    fill="#99A1AF"
  />
</svg>
