<svg
  width="28"
  height="16"
  viewBox="0 0 28 16"
  fill="none"
  xmlns="http://www.w3.org/2000/svg"
>
  <g clip-path="url(#clip0_1870_2831)">
    <path
      d="M24.3027 12.1757C22.5757 12.1757 21.5197 11.1087 21.3877 9.40367L22.7737 9.32667C22.9167 10.3937 23.4777 10.9437 24.3687 10.9437C25.1937 10.9437 25.6777 10.6027 25.6777 9.97567C25.6777 9.32667 25.3037 8.95267 23.8407 8.54567C22.2567 8.12767 21.5527 7.58867 21.5527 6.33467C21.5527 4.93767 22.5427 4.01367 24.2147 4.01367C25.8647 4.01367 26.8107 5.00367 26.9537 6.58767L25.5567 6.65367C25.4467 5.79567 24.9847 5.24567 24.1597 5.24567C23.4227 5.24567 22.9387 5.65267 22.9387 6.25767C22.9387 6.88467 23.3127 7.14867 24.6217 7.48967C26.4367 7.97367 27.0637 8.68867 27.0637 9.94267C27.0637 11.2957 25.9967 12.1757 24.3027 12.1757Z"
      fill="#99A1AF"
    />
    <path
      d="M15.0559 11.9995V4.18945H19.8959V5.44345H16.4199V7.47845H19.7639V8.68845H16.4199V10.7455H19.9839V11.9995H15.0559Z"
      fill="#99A1AF"
    />
    <path
      d="M8.24023 11.9995V4.18945H13.0802V5.44345H9.60423V7.47845H12.9482V8.68845H9.60423V10.7455H13.1682V11.9995H8.24023Z"
      fill="#99A1AF"
    />
    <path
      d="M1.53467 11.9995V4.18945H6.46267V5.42145H2.89867V7.56645H6.26467V8.78745H2.89867V11.9995H1.53467Z"
      fill="#99A1AF"
    />
    <line
      x1="14"
      y1="15.5"
      x2="28"
      y2="15.5"
      stroke="#99A1AF"
      stroke-dasharray="4 2"
    />
    <line y1="0.5" x2="14" y2="0.5" stroke="#99A1AF" stroke-dasharray="4 2" />
    <line x1="14" y1="0.5" x2="28" y2="0.5" stroke="#99A1AF" />
    <line y1="15.5" x2="14" y2="15.5" stroke="#99A1AF" />
  </g>
  <defs>
    <clipPath id="clip0_1870_2831">
      <rect width="28" height="16" fill="white" />
    </clipPath>
  </defs>
</svg>
