<svg
  fill="none"
  height="16"
  viewBox="0 0 16 16"
  width="16"
  xmlns="http://www.w3.org/2000/svg"
>
  <path
    clip-rule="evenodd"
    d="M13.7801 10.47C13.9205 10.6106 13.9994 10.8012 13.9994 11C13.9994 11.1987 13.9205 11.3893 13.7801 11.53L11.5301 13.78C11.3894 13.9204 11.1988 13.9993 11.0001 13.9993C10.8013 13.9993 10.6107 13.9204 10.4701 13.78L8.22007 11.53C8.14639 11.4613 8.08728 11.3785 8.04629 11.2865C8.0053 11.1945 7.98326 11.0952 7.98148 10.9945C7.9797 10.8938 7.99823 10.7937 8.03595 10.7004C8.07367 10.607 8.12982 10.5221 8.20103 10.4509C8.27225 10.3797 8.35709 10.3235 8.45047 10.2858C8.54386 10.2481 8.64389 10.2296 8.74459 10.2314C8.8453 10.2331 8.94461 10.2552 9.03661 10.2962C9.12861 10.3372 9.21141 10.3963 9.28007 10.47L10.2501 11.4399V5.74995C10.2501 5.55104 10.3291 5.36027 10.4697 5.21962C10.6104 5.07897 10.8012 4.99995 11.0001 4.99995C11.199 4.99995 11.3897 5.07897 11.5304 5.21962C11.6711 5.36027 11.7501 5.55104 11.7501 5.74995V11.4399L12.7201 10.47C12.8607 10.3295 13.0513 10.2506 13.2501 10.2506C13.4488 10.2506 13.6394 10.3295 13.7801 10.47ZM2.22007 5.52995C2.07962 5.38933 2.00073 5.1987 2.00073 4.99995C2.00073 4.8012 2.07962 4.61058 2.22007 4.46995L4.47007 2.21995C4.6107 2.0795 4.80132 2.00061 5.00007 2.00061C5.19882 2.00061 5.38945 2.0795 5.53007 2.21995L7.78007 4.46995C7.91255 4.61213 7.98468 4.80017 7.98125 4.99447C7.97782 5.18877 7.89911 5.37416 7.76169 5.51157C7.62428 5.64899 7.4389 5.7277 7.2446 5.73113C7.05029 5.73455 6.86225 5.66243 6.72007 5.52995L5.75007 4.55995V10.25C5.75007 10.4489 5.67105 10.6396 5.5304 10.7803C5.38975 10.9209 5.19898 11 5.00007 11C4.80116 11 4.61039 10.9209 4.46974 10.7803C4.32909 10.6396 4.25007 10.4489 4.25007 10.25V4.55995L3.28007 5.52995C3.13945 5.6704 2.94882 5.74929 2.75007 5.74929C2.55132 5.74929 2.3607 5.6704 2.22007 5.52995Z"
    fill="#101828"
    fill-rule="evenodd"
  />
</svg>
