<svg
  fill="none"
  height="16"
  viewBox="0 0 16 16"
  xmlns="http://www.w3.org/2000/svg"
  width="16"
>
  <path
    clip-rule="evenodd"
    d="M10.4703 2.22001C10.6109 2.07956 10.8016 2.00067 11.0003 2.00067C11.1991 2.00067 11.3897 2.07956 11.5303 2.22001L13.7803 4.47001C13.9208 4.61064 13.9997 4.80126 13.9997 5.00001C13.9997 5.19876 13.9208 5.38939 13.7803 5.53001L11.5303 7.78001C11.4617 7.8537 11.3789 7.9128 11.2869 7.95379C11.1949 7.99478 11.0955 8.01683 10.9948 8.0186C10.8941 8.02038 10.7941 8.00186 10.7007 7.96413C10.6073 7.92641 10.5225 7.87027 10.4513 7.79905C10.3801 7.72783 10.3239 7.643 10.2862 7.54961C10.2485 7.45622 10.2299 7.35619 10.2317 7.25549C10.2335 7.15479 10.2555 7.05547 10.2965 6.96347C10.3375 6.87147 10.3966 6.78867 10.4703 6.72001L11.4403 5.75001H5.75032C5.5514 5.75001 5.36064 5.67099 5.21999 5.53034C5.07933 5.38969 5.00032 5.19892 5.00032 5.00001C5.00032 4.8011 5.07933 4.61033 5.21999 4.46968C5.36064 4.32903 5.5514 4.25001 5.75032 4.25001H11.4403L10.4703 3.28001C10.3299 3.13939 10.251 2.94876 10.251 2.75001C10.251 2.55126 10.3299 2.36064 10.4703 2.22001ZM5.53032 8.22001C5.67077 8.36064 5.74966 8.55126 5.74966 8.75001C5.74966 8.94876 5.67077 9.13939 5.53032 9.28001L4.56032 10.25H10.2503C10.4492 10.25 10.64 10.329 10.7806 10.4697C10.9213 10.6103 11.0003 10.8011 11.0003 11C11.0003 11.1989 10.9213 11.3897 10.7806 11.5303C10.64 11.671 10.4492 11.75 10.2503 11.75H4.56032L5.53032 12.72C5.604 12.7887 5.66311 12.8715 5.7041 12.9635C5.74509 13.0555 5.76713 13.1548 5.76891 13.2555C5.77068 13.3562 5.75216 13.4562 5.71444 13.5496C5.67672 13.643 5.62057 13.7278 5.54936 13.799C5.47814 13.8703 5.3933 13.9264 5.29991 13.9641C5.20653 14.0019 5.1065 14.0204 5.00579 14.0186C4.90509 14.0168 4.80578 13.9948 4.71378 13.9538C4.62178 13.9128 4.53898 13.8537 4.47032 13.78L2.22032 11.53C2.07987 11.3894 2.00098 11.1988 2.00098 11C2.00098 10.8013 2.07987 10.6106 2.22032 10.47L4.47032 8.22001C4.61094 8.07956 4.80157 8.00067 5.00032 8.00067C5.19907 8.00067 5.38969 8.07956 5.53032 8.22001Z"
    fill="#416BFF"
    fill-rule="evenodd"
  />
</svg>
