<svg
  width="114"
  height="20"
  viewBox="0 0 114 20"
  fill="none"
  xmlns="http://www.w3.org/2000/svg"
>
  <g clip-path="url(#clip0_1003_13401)">
    <path
      d="M23.2822 0.304078L14.5175 19.4584H8.79869L0 0.304078H5.92235L11.6411 14.8894L17.3938 0.304078H23.2822ZM11.6411 7.90212C12.7256 7.90212 13.6039 7.02382 13.6039 5.93931C13.6039 4.85481 12.7256 3.97651 11.6411 3.97651C10.5566 3.97651 9.6783 4.85481 9.6783 5.93931C9.6783 7.02382 10.5566 7.90212 11.6411 7.90212ZM21.3533 11.6476C20.2688 11.6476 19.3905 12.5259 19.3905 13.6104C19.3905 14.6949 20.2688 15.5732 21.3533 15.5732C22.4378 15.5732 23.3162 14.6949 23.3162 13.6104C23.3162 12.5259 22.4378 11.6476 21.3533 11.6476ZM30.34 11.4049H42.7928V7.91909H30.34V3.95954H43.4362V0.304078H24.9592V19.4584H43.5719V15.8029H30.34V11.4036V11.4049ZM45.1471 3.95954H52.4907V19.4584H57.8715V3.95954H65.215V0.304078H45.1471V3.95954ZM84.3915 10.1181V10.186C86.7602 10.524 87.1321 13.4343 87.1321 15.2966V19.4584H81.7514V15.7703C81.7514 13.0962 80.5664 12.4202 78.875 12.4202H72.2088V19.4597H66.8281V0.304078H81.2111C86.6936 0.304078 87.6072 3.55237 87.6072 5.51517C87.6072 7.84992 86.6597 9.33899 84.3928 10.1181H84.3915ZM81.921 6.32822C81.921 4.43328 80.3641 3.95954 79.0447 3.95954H72.2088V8.79869H79.3488C80.5338 8.79869 81.921 8.1553 81.921 6.32822ZM113.746 9.98369C113.746 13.9432 112.055 20 101.428 20C90.8007 20 89.1093 13.9419 89.1093 9.98369C89.1093 6.02545 90.768 0 101.428 0C112.087 0 113.746 6.02414 113.746 9.98369ZM108.027 9.98369C108.027 7.03948 106.301 3.5876 101.428 3.5876C96.5546 3.5876 94.8281 7.03948 94.8281 9.98369C94.8281 12.9279 96.5533 16.3798 101.428 16.3798C106.302 16.3798 108.027 12.9279 108.027 9.98369Z"
      fill="#101828"
    />
  </g>
  <defs>
    <clipPath id="clip0_1003_13401">
      <rect width="113.746" height="20" fill="white" />
    </clipPath>
  </defs>
</svg>
