<svg
  xmlns="http://www.w3.org/2000/svg"
  width="30"
  height="24"
  viewBox="0 0 30 24"
  fill="none"
>
  <g clip-path="url(#clip0_1003_13434)">
    <path
      d="M29.1722 0L18.1901 24H11.0246L0 0H7.42059L14.5861 18.2751L21.7941 0H29.1722ZM14.5861 9.5202C15.9449 9.5202 17.0454 8.4197 17.0454 7.06084C17.0454 5.70198 15.9449 4.60149 14.5861 4.60149C13.2272 4.60149 12.1267 5.70198 12.1267 7.06084C12.1267 8.4197 13.2272 9.5202 14.5861 9.5202ZM26.7553 14.2133C25.3965 14.2133 24.296 15.3138 24.296 16.6726C24.296 18.0315 25.3965 19.132 26.7553 19.132C28.1142 19.132 29.2147 18.0315 29.2147 16.6726C29.2147 15.3138 28.1142 14.2133 26.7553 14.2133Z"
      fill="#101828"
    />
  </g>
  <defs>
    <clipPath id="clip0_1003_13434">
      <rect width="29.2147" height="24" fill="white" />
    </clipPath>
  </defs>
</svg>
