<svg
  width="481"
  height="87"
  viewBox="0 0 481 87"
  fill="none"
  xmlns="http://www.w3.org/2000/svg"
>
  <g clip-path="url(#clip0)">
    <path
      d="M99.0445 2.29233L62.1349 83.6982H38.0525L1 2.29233H25.9398L50.0222 64.2799L74.2476 2.29233H99.0445ZM50.0222 34.584C54.5892 34.584 58.2879 30.8512 58.2879 26.2421C58.2879 21.633 54.5892 17.9002 50.0222 17.9002C45.4553 17.9002 41.7566 21.633 41.7566 26.2421C41.7566 30.8512 45.4553 34.584 50.0222 34.584ZM90.9217 50.5024C86.3547 50.5024 82.6561 54.2352 82.6561 58.8444C82.6561 63.4535 86.3547 67.1863 90.9217 67.1863C95.4887 67.1863 99.1874 63.4535 99.1874 58.8444C99.1874 54.2352 95.4887 50.5024 90.9217 50.5024ZM128.766 49.4708H181.206V34.6561H128.766V17.8281H183.916V2.29233H106.107V83.6982H184.487V68.1625H128.766V49.4653V49.4708ZM191.121 17.8281H222.045V83.6982H244.704V17.8281H275.629V2.29233H191.121V17.8281ZM356.384 44.002V44.2904C366.359 45.7269 367.925 58.0956 367.925 66.0104V83.6982H345.266V68.0238C345.266 56.6591 340.276 53.786 333.153 53.786H305.081V83.7038H282.422V2.29233H342.991C366.078 2.29233 369.925 16.0976 369.925 24.4395C369.925 34.3622 365.935 40.6907 356.389 44.002H356.384ZM345.98 27.8949C345.98 19.8414 339.424 17.8281 333.868 17.8281H305.081V38.3945H335.148C340.138 38.3945 345.98 35.66 345.98 27.8949ZM480 43.4307C480 60.2587 472.877 86 428.125 86C383.373 86 376.251 60.2532 376.251 43.4307C376.251 26.6082 383.236 1 428.125 1C473.015 1 480 26.6026 480 43.4307ZM455.918 43.4307C455.918 30.9178 448.647 16.2473 428.125 16.2473C407.604 16.2473 400.333 30.9178 400.333 43.4307C400.333 55.9436 407.599 70.614 428.125 70.614C448.652 70.614 455.918 55.9436 455.918 43.4307Z"
      fill="#D9EBFF"
      stroke="#416BFF"
      stroke-dasharray="6 2"
    />
  </g>
  <defs>
    <clipPath id="clip0">
      <rect width="481" height="87" fill="white" />
    </clipPath>
  </defs>
</svg>
