<svg
  width="1066"
  height="157"
  viewBox="187 0 1066 157"
  fill="none"
  xmlns="http://www.w3.org/2000/svg"
>
  <path d="M721 134C565.667 357.066 245.6 890.759 206 1243" stroke="#2040FF" />
  <path
    d="M903 19.5C822.2 3.1 749.833 88.6677 721 133.501C717 93.5 688.5 12 669.5 2"
    stroke="#2040FF"
  />
  <path
    d="M720 0.5C1218.44 0.5 1622.5 404.563 1622.5 903C1622.5 1401.44 1218.44 1805.5 720 1805.5C221.563 1805.5 -182.5 1401.44 -182.5 903C-182.5 404.563 221.563 0.5 720 0.5Z"
    stroke="#2040FF"
  />
  <path
    d="M720 11.5C822.653 11.5 915.564 35.5493 982.794 74.4053C1050.04 113.269 1091.5 166.884 1091.5 226C1091.5 285.116 1050.04 338.731 982.794 377.595C915.564 416.451 822.653 440.5 720 440.5C617.347 440.5 524.436 416.451 457.206 377.595C389.963 338.731 348.5 285.116 348.5 226C348.5 166.884 389.963 113.269 457.206 74.4053C524.436 35.5493 617.347 11.5 720 11.5Z"
    stroke="#2040FF"
  />
  <path
    d="M720 74.5C755.003 74.5 786.668 82.2099 809.563 94.6494C832.479 107.099 846.5 124.216 846.5 143C846.5 161.784 832.479 178.901 809.563 191.351C786.668 203.79 755.003 211.5 720 211.5C684.997 211.5 653.332 203.79 630.437 191.351C607.521 178.901 593.5 161.784 593.5 143C593.5 124.216 607.521 107.099 630.437 94.6494C653.332 82.2099 684.997 74.5 720 74.5Z"
    stroke="#2040FF"
  />
  <path
    d="M720 0.5C876.765 0.5 1018.67 42.172 1121.36 109.521C1224.06 176.872 1287.5 269.86 1287.5 372.5C1287.5 475.14 1224.06 568.128 1121.36 635.479C1018.67 702.828 876.765 744.5 720 744.5C563.235 744.5 421.333 702.828 318.638 635.479C215.938 568.128 152.5 475.14 152.5 372.5C152.5 269.86 215.938 176.872 318.638 109.521C421.333 42.172 563.235 0.5 720 0.5Z"
    stroke="#2040FF"
  />
  <path d="M721 133.5C559.333 92.5 244 65.5017 35.5 315" stroke="#2040FF" />
  <path
    d="M1403.5 314.998C1219 161 879 113.501 720 133.998C543.833 137.999 130.7 227.1 -112.5 551.5"
    stroke="#2040FF"
  />
  <path
    d="M721 133.496C795.667 96.3297 985.9 40.3967 1147.5 107.997"
    stroke="#2040FF"
  />
  <path
    d="M720.5 133.5C915.833 179.167 1366.8 365.4 1608 745"
    stroke="#2040FF"
  />
  <path
    d="M719 132C930.833 296.167 1388.9 759.1 1526.5 1297.5"
    stroke="#2040FF"
  />
  <path
    d="M721 133.5C932.833 297.667 1388.9 759.1 1526.5 1297.5"
    stroke="#2040FF"
  />
  <path d="M721 134C458.5 244.5 -81 609.1 -137 1179.5" stroke="#2040FF" />
  <path
    d="M721 133.499C659.333 88.1655 522.5 13.5 417.5 52.4976"
    stroke="#2040FF"
  />
  <path d="M721 134C768.5 382.5 870.8 930.3 894 1135.5" stroke="#2040FF" />
</svg>
