<svg
  xmlns="http://www.w3.org/2000/svg"
  width="493"
  height="87"
  viewBox="0 0 493 87"
  fill="none"
>
  <path
    d="M100.89 1.31767L62.909 84.3197H38.1277L0 1.31767H25.6635L50.4448 64.5207L75.3731 1.31767H100.89ZM50.4448 34.2425C55.1443 34.2425 58.9503 30.4365 58.9503 25.737C58.9503 21.0375 55.1443 17.2315 50.4448 17.2315C45.7453 17.2315 41.9393 21.0375 41.9393 25.737C41.9393 30.4365 45.7453 34.2425 50.4448 34.2425ZM92.5312 50.4731C87.8316 50.4731 84.0257 54.2791 84.0257 58.9786C84.0257 63.6781 87.8316 67.4841 92.5312 67.4841C97.2307 67.4841 101.037 63.6781 101.037 58.9786C101.037 54.2791 97.2307 50.4731 92.5312 50.4731ZM131.473 49.4212H185.436V34.316H131.473V17.158H188.224V1.31767H108.157V84.3197H188.812V68.4794H131.473V49.4155V49.4212ZM195.638 17.158H227.46V84.3197H250.776V17.158H282.598V1.31767H195.638V17.158ZM365.697 43.8451V44.1392C375.961 45.6039 377.573 58.2151 377.573 66.2851V84.3197H354.256V68.338C354.256 56.7504 349.121 53.821 341.792 53.821H312.905V84.3254H289.588V1.31767H351.915C375.672 1.31767 379.631 15.3936 379.631 23.8991C379.631 34.0163 375.525 40.4689 365.702 43.8451H365.697ZM354.991 27.4223C354.991 19.2109 348.244 17.158 342.527 17.158H312.905V38.1277H343.845C348.98 38.1277 354.991 35.3396 354.991 27.4223ZM492.9 43.2626C492.9 60.4207 485.571 86.6667 439.52 86.6667C393.469 86.6667 386.14 60.415 386.14 43.2626C386.14 26.1103 393.328 0 439.52 0C485.712 0 492.9 26.1046 492.9 43.2626ZM468.119 43.2626C468.119 30.5044 460.637 15.5463 439.52 15.5463C418.403 15.5463 410.922 30.5044 410.922 43.2626C410.922 56.0209 418.398 70.979 439.52 70.979C460.642 70.979 468.119 56.0209 468.119 43.2626Z"
    fill="#101828"
  />
</svg>
